<svg xmlns="http://www.w3.org/2000/svg" viewBox="0 0 593.07 486.16"><defs><style>.cls-1{fill:none;stroke:#0060d0;stroke-linecap:round;stroke-linejoin:round;stroke-width:24.87px;}</style></defs><g id="Layer_2" data-name="Layer 2"><g id="Layer_1-2" data-name="Layer 1"><g id="cart"><path id="Path_14" data-name="Path 14" class="cls-1" d="M28,43.27H96.72A38.94,38.94,0,0,1,134.25,71.6L220,378.49a38.92,38.92,0,0,0,37.53,28.33H531.12a18.37,18.37,0,0,0,18.45-18.3h0a18.38,18.38,0,0,0-18.45-18.31H281.38A38.91,38.91,0,0,1,243.87,342L158.27,40.61a38.91,38.91,0,0,0-37.5-28.17H28A15.46,15.46,0,0,0,12.44,27.83v0h0A15.47,15.47,0,0,0,28,43.27h0Z"/><path id="Path_15" data-name="Path 15" class="cls-1" d="M181.3,121.54H580.64L514,327.69H239.8"/><line id="Line_1" data-name="Line 1" class="cls-1" x1="199.68" y1="186.25" x2="559.72" y2="186.25"/><line id="Line_2" data-name="Line 2" class="cls-1" x1="219.77" y1="257.05" x2="536.82" y2="257.05"/><line id="Line_3" data-name="Line 3" class="cls-1" x1="488.34" y1="121.56" x2="448.38" y2="327.71"/><line id="Line_4" data-name="Line 4" class="cls-1" x1="268.12" y1="121.56" x2="308.09" y2="327.71"/><line id="Line_5" data-name="Line 5" class="cls-1" x1="375.56" y1="121.56" x2="375.56" y2="327.71"/><ellipse id="Ellipse_2" data-name="Ellipse 2" class="cls-1" cx="271.78" cy="440.22" rx="33.77" ry="33.5"/><ellipse id="Ellipse_3" data-name="Ellipse 3" class="cls-1" cx="503.07" cy="440.22" rx="33.77" ry="33.5"/></g></g></g></svg>