<svg xmlns="http://www.w3.org/2000/svg" viewBox="0 0 564.07 564.07"><defs><style>.cls-1{fill:#30a08e;}.cls-2{fill:#fff;}</style></defs><g id="Layer_2" data-name="Layer 2"><g id="Layer_1-2" data-name="Layer 1"><g id="Check_-_active" data-name="Check - active"><rect id="Rectangle" class="cls-1" width="564.07" height="564.07" rx="141.02"/><g id="icons_icon-checkmark-small" data-name="icons icon-checkmark-small"><path id="Path" class="cls-2" d="M388.47,252.08l-68.28,66.31Q298.73,339.2,277.38,360a24.8,24.8,0,0,1-33.84,0l-8.47-8.18q-29.43-28.86-59-57.68a23.07,23.07,0,0,1-.15-32.63l.15-.14a24.64,24.64,0,0,1,33.84,0q4.23,4.07,8.46,8.15c14.1,13.73,28.2,27.53,42.31,41.26l66.89-65.15,42.82-41.6a24.78,24.78,0,0,1,33.84,0,23,23,0,0,1,.24,32.59l-.24.24Z"/></g></g></g></g></svg>