<svg xmlns="http://www.w3.org/2000/svg" viewBox="0 0 369.3 369.29"><defs><style>.cls-1{fill:#356b59;fill-rule:evenodd;}</style></defs><g id="Layer_2" data-name="Layer 2"><g id="Layer_1-2" data-name="Layer 1"><path id="plus-circle-filled-icon" class="cls-1" d="M183.26,369.29c-102-.77-184-84.06-183.25-186S84.06-.76,186,0A184.65,184.65,0,0,1,369.3,184.65c-.39,102.36-83.67,185-186,184.64Zm93-161.56H206.52V277A23.26,23.26,0,0,1,160,277V207.73H90.24a23.09,23.09,0,0,1-1-46.16H160V92.32a23.26,23.26,0,0,1,46.51,0v69.25h69.76a23.09,23.09,0,0,1,1,46.16C277,207.74,276.63,207.74,276.28,207.73Z"/></g></g></svg>