<svg xmlns="http://www.w3.org/2000/svg" viewBox="0 0 501.04 493.58"><defs><style>.cls-1{fill:#0060cf;}.cls-2{fill:#0060d0;}</style></defs><g id="Layer_2" data-name="Layer 2"><g id="Layer_1-2" data-name="Layer 1"><g id="Group_122" data-name="Group 122"><g id="Graph_02" data-name="Graph 02"><g id="Time_money" data-name="Time money"><path id="Path_30" data-name="Path 30" class="cls-1" d="M165,212.88H99.65a33.57,33.57,0,0,1-33-33.6h0A33,33,0,0,1,99,145.67h65.3a33,33,0,0,1,32.31,33.61h65.3A100.43,100.43,0,0,0,163.58,77.05V0H98.31V76.29A100.43,100.43,0,0,0,0,178.51H0A100.44,100.44,0,0,0,98.31,280.74h65.31a33,33,0,0,1,32.3,33.6h0a33.6,33.6,0,0,1-32.3,34.33H98.31A33,33,0,0,1,66,315.07H1.35a100.42,100.42,0,0,0,98.3,102.22v76.29H165v-76.9a100.42,100.42,0,0,0,98.3-102.22h0A100.71,100.71,0,0,0,165,212.88Z"/></g></g></g><path id="Combined_Shape" data-name="Combined Shape" class="cls-2" d="M376.42,371.94l-78.84-78.8a18.54,18.54,0,0,1,0-26.22l0,0L376.42,188a18.61,18.61,0,1,1,26.32,26.32h0l-47.15,47H482.46a18.58,18.58,0,1,1,0,37.16H355.52l47.22,47.18a18.58,18.58,0,1,1-26.28,26.28Z"/></g></g></svg>