<svg xmlns="http://www.w3.org/2000/svg" viewBox="0 0 606.68 606.96"><defs><style>.cls-1{fill:#a7a7a7;}</style></defs><g id="Layer_2" data-name="Layer 2"><g id="Layer_1-2" data-name="Layer 1"><path id="Path_13" data-name="Path 13" class="cls-1" d="M397.94,252.16H557.8a47.63,47.63,0,0,1,48.3,55,54.39,54.39,0,0,1-45.89,48,21.6,21.6,0,0,0-5.38,1.2A48.22,48.22,0,0,1,591.7,400a52.77,52.77,0,0,1-28.6,52.22c21.09,34,18.71,50-11.21,77.86a117.27,117.27,0,0,1,7.62,18.66,49.08,49.08,0,0,1-37.09,56.59,61.87,61.87,0,0,1-14.29,1.46c-32.67,0-65.31.19-98.05,0q-86.56-.48-173.12-1.26a34.18,34.18,0,0,1-34.56-33.8c0-.54,0-1.08,0-1.62q0-108.81-.2-222.3a139.1,139.1,0,0,1,13.17-54.47A555.64,555.64,0,0,1,281,183.8c12.69-17.51,26.14-34.54,39.56-51.72A112.86,112.86,0,0,0,346.66,62.6a199,199,0,0,1,.75-29.3A36.16,36.16,0,0,1,381.79.71,45.47,45.47,0,0,1,435,50c1.09,24.18,1.94,48.25,1.66,72.17a223.66,223.66,0,0,1-21.38,88.45C409.43,223.92,404.13,237.37,397.94,252.16Z"/><path id="Rectangle_18" data-name="Rectangle 18" class="cls-1" d="M79.93,303.77h0a79.93,79.93,0,0,1,79.93,79.93V527A79.94,79.94,0,0,1,79.93,607h0A79.94,79.94,0,0,1,0,527V383.7A79.93,79.93,0,0,1,79.93,303.77Z"/></g></g></svg>