<svg xmlns="http://www.w3.org/2000/svg" viewBox="0 0 566.14 738.26"><defs><style>.cls-1{fill:#30a08e;}</style></defs><g id="Layer_2" data-name="Layer 2"><g id="Layer_1-2" data-name="Layer 1"><g id="Group"><path id="Shape" class="cls-1" d="M367.8,738.06H191.64a917,917,0,0,1-94.5-2.9A109.75,109.75,0,0,1,30,708.43,109.18,109.18,0,0,1,3.22,641.25a927.15,927.15,0,0,1-3-97.9v-3.21a38.07,38.07,0,0,1,.27-4.26v-142a937.25,937.25,0,0,1,2.85-96.27,109.41,109.41,0,0,1,26.83-67.4A109.76,109.76,0,0,1,97.5,203.69c2.94-.32,6.42-.45,9.77-.59l6.2-.27V172.48a17,17,0,0,1,0-2.85,169.47,169.47,0,1,1,338.93-.32,27.94,27.94,0,0,1,0,3.17v30.26l7,.36a88.48,88.48,0,0,1,9.59.59,109.85,109.85,0,0,1,67.18,26.74A109.08,109.08,0,0,1,563,297.65a940,940,0,0,1,2.94,97.86V542A966.81,966.81,0,0,1,563,641.2a109,109,0,0,1-26.79,67.18A109.73,109.73,0,0,1,469,735.12,923.38,923.38,0,0,1,373,738H367.8Zm-168-480.67h-1.4c-42,0-73.47,0-94.74,2.53a59.86,59.86,0,0,0-33.56,10.5A59.81,59.81,0,0,0,59.59,304c-2.36,20.9-2.54,52.43-2.54,94.73V540.14a26.53,26.53,0,0,1-.27,4c0,38.86,0,70.26,2.49,90.75a60.48,60.48,0,0,0,10.54,33.61A59.54,59.54,0,0,0,103.42,679c21.31,2.35,52.71,2.53,94.69,2.53H367.76c43.79,0,74.06,0,94.68-2.44a59.76,59.76,0,0,0,33.62-10.59,60,60,0,0,0,10.54-33.57c2.35-20.85,2.53-52.34,2.53-94.55V398.9c0-42.39,0-74-2.53-95a60,60,0,0,0-10.54-33.57,59.72,59.72,0,0,0-33.62-10.5c-21.12-2.44-52.79-2.44-94.64-2.44h-168Zm-1.45-56.55H396.12v-28.5a113.1,113.1,0,1,0-226.19,0v28.5h28.45Z"/><path id="Path" class="cls-1" d="M283.07,370.4a56.64,56.64,0,0,0-49,85,57.36,57.36,0,0,0,20.76,20.72v64.06a28.35,28.35,0,1,0,56.69,0V476A56.59,56.59,0,0,0,283.07,370.4Z"/></g></g></g></svg>