<svg xmlns="http://www.w3.org/2000/svg" viewBox="0 0 975.81 482.63"><defs><style>.cls-1,.cls-2,.cls-3{isolation:isolate;}.cls-2,.cls-3{font-size:405.01px;font-family:Montserrat-Regular, Montserrat;}.cls-2,.cls-3,.cls-4{fill:#356b59;}.cls-2{letter-spacing:-0.03em;}</style></defs><g id="Layer_2" data-name="Layer 2"><g id="Layer_1-2" data-name="Layer 1"><g id="Group_43" data-name="Group 43"><g id="se" class="cls-1"><text class="cls-2" transform="translate(561.49 345.73)">se</text></g><g id="l" class="cls-1"><text class="cls-3" transform="translate(0 344.26)">l</text></g><rect id="Rectangle_11" data-name="Rectangle 11" class="cls-4" x="335.37" y="303" width="26.98" height="179.63"/><g id="Group_16" data-name="Group 16"><g id="Group_15" data-name="Group 15"><path id="Path_9" data-name="Path 9" class="cls-4" d="M313.32,196.2A240,240,0,0,0,271,153.32c-44.76-33.3-107.72-33.43-149.92,5.36a101.62,101.62,0,0,0-8.26,143.48,100.59,100.59,0,0,0,8.26,8.26,113.82,113.82,0,0,0,80.24,29.67c60.91-1.63,91.73-41.06,125.13-83.82,5.95-7.64,11.81-15.42,17.8-23.08,29-37.16,55.81-71.42,103.64-72.71,39.78-1,85.62,28.06,84.52,75.59a70.84,70.84,0,0,1-23.74,50.28c-31.77,29.23-79.86,28.86-113.8,4.17a222.75,222.75,0,0,1-40.75-42c-2,2.62-4.06,5.25-6.13,7.82-4.23,5.62-8.42,11.11-12.75,16.63a236.27,236.27,0,0,0,43.48,43.73c44.67,32.54,107,32.11,148.72-6.24a103.2,103.2,0,0,0,33.95-73.61C563,170.73,504,127.53,447.22,129c-60.91,1.64-91.73,41.06-125.13,83.82-5.95,7.66-11.83,15.44-17.8,23.08-29,37.16-55.81,71.42-103.63,72.71a86.58,86.58,0,0,1-60.79-22.26,68.42,68.42,0,0,1-7.15-96.49,67,67,0,0,1,7.15-7.15c32.16-29.61,80.81-28.68,114.77-3.41a226.15,226.15,0,0,1,39.73,41.23c6.23-8.25,12.56-16.26,18.93-24.42Z"/></g></g><path id="Path_11" data-name="Path 11" class="cls-4" d="M313.29,272.93v73.85h-27V288.83S312.2,272.93,313.29,272.93Z"/><path id="Path_12" data-name="Path 12" class="cls-4" d="M335.3,273v36h27V274.33Z"/></g></g></g></svg>