<svg xmlns="http://www.w3.org/2000/svg" viewBox="0 0 756 568.44"><defs><style>.cls-1{fill:#30a08e;}</style></defs><g id="Layer_2" data-name="Layer 2"><g id="Layer_1-2" data-name="Layer 1"><path id="Shape" class="cls-1" d="M414.12,568.44H341.81c-71.7,0-133.62,0-180.39-4.22-54.37-4.85-86.52-14.82-111-34.36s-38.85-49.17-45-93.11C0,398.36,0,349.9,0,288.55V280c0-61.36,0-109.82,5.36-148.21,6.18-43.88,20.49-73.45,45-93.11A105.89,105.89,0,0,1,62.6,30.26a28.3,28.3,0,0,1,8.5-4.78c21.76-11,49.63-17.57,90.32-21.23C208.66,0,269.39,0,346.26,0h63.38c76.9,0,137.64,0,184.93,4.26,40.18,3.63,67.71,10,89.26,20.64a26.61,26.61,0,0,1,10.76,6,112.08,112.08,0,0,1,11,7.72c24.58,19.66,38.86,49.25,45,93.11C756,170.13,756,218.61,756,280v8.52c0,61.38,0,109.85-5.4,148.24-6.13,43.9-20.43,73.49-45,93.12s-56.67,29.5-111,34.36C547.77,568.44,485.83,568.44,414.12,568.44ZM80.12,83.26h0c-11,11.38-17.33,27.94-21.22,55.39C54.33,170.86,54,215.14,54,284.24s.33,113.46,4.9,145.64,11.86,49,26.11,60.33c14.42,11.56,41.08,18.94,81.47,22.55,44.75,4,109.5,4,184.48,4h54c75,0,139.81,0,184.56-4,40.34-3.61,67-11,81.48-22.55,14.24-11.36,21.56-28.28,26.11-60.33,4.55-32.39,4.89-78.69,4.89-145.64,0-66.7-.34-112.87-4.89-145.59-3.88-27.4-10.23-44-21.22-55.39-10.53,8.32-52.44,41.3-101.64,80l-1.27,1-.86.69L463.75,250.26a140,140,0,0,1-171.46,0L183.92,165l-.87-.69C133.27,125.13,90.73,91.65,80.12,83.26ZM351,51.67c-75,0-139.72,0-184.47,4-11.45,1.08-21.64,2.42-31.16,4.09,21.06,16.61,59.77,47.07,104.6,82.34l86.63,68.16a83.59,83.59,0,0,0,102.91,0L528,132.77l2.2-1.73L620.69,59.8c-9.34-1.63-19.56-3-31.21-4.09-44.71-4-109.5-4-184.52-4Z"/></g></g></svg>