<svg xmlns="http://www.w3.org/2000/svg" viewBox="0 0 298.23 298.46"><defs><style>.cls-1{fill:#fff;}</style></defs><g id="Layer_2" data-name="Layer 2"><g id="Layer_1-2" data-name="Layer 1"><path id="paper-plane-solid" class="cls-1" d="M290.14,3.27A18.55,18.55,0,0,1,298,21.45L260.73,263.8a18.65,18.65,0,0,1-21.34,15.51,18.36,18.36,0,0,1-4.3-1.22l-69.68-28.91-39.89,43.16a18.57,18.57,0,0,1-32.34-12.7v-48.7a9.16,9.16,0,0,1,2.44-6.23l97.65-106.56a9.3,9.3,0,0,0-13.06-13.23L61.66,210.2,10.23,184.49a18.71,18.71,0,0,1-.84-32.9l261-149.14a18.69,18.69,0,0,1,19.81.82Z"/></g></g></svg>