<svg xmlns="http://www.w3.org/2000/svg" viewBox="0 0 141.36 265.1"><defs><style>.cls-1{fill:#356b59;}</style></defs><g id="Layer_2" data-name="Layer 2"><g id="Layer_1-2" data-name="Layer 1"><g id="Group_3" data-name="Group 3"><g id="Graph_02" data-name="Graph 02"><g id="Time_money" data-name="Time money"><path id="Path_30" data-name="Path 30" class="cls-1" d="M88.6,114.34H53.53a18,18,0,0,1-17.72-18h0A17.72,17.72,0,0,1,53.17,78.23H88.24A17.73,17.73,0,0,1,105.6,96.29h35.09a54,54,0,0,0-52.8-54.92V0H52.8V41A54,54,0,0,0,0,96H0A53.94,53.94,0,0,0,52.8,150.9H87.87a17.74,17.74,0,0,1,17.37,17.91h0a18.07,18.07,0,0,1-17.37,18.44H52.8a17.73,17.73,0,0,1-17.36-18.06H.69A53.94,53.94,0,0,0,53.48,224.1v41H88.55V223.72a54,54,0,0,0,52.8-54.91h0A54.11,54.11,0,0,0,88.6,114.34Z"/></g></g></g></g></g></svg>