<svg xmlns="http://www.w3.org/2000/svg" viewBox="0 0 294.37 290"><defs><style>.cls-1{fill:#0060cf;}.cls-2{fill:#0060d0;}</style></defs><g id="Layer_2" data-name="Layer 2"><g id="Layer_1-2" data-name="Layer 1"><g id="Group_121" data-name="Group 121"><g id="Graph_02" data-name="Graph 02"><g id="Time_money" data-name="Time money"><path id="Path_30" data-name="Path 30" class="cls-1" d="M96.92,125.08H58.55a19.74,19.74,0,0,1-19.39-19.75h0a19.38,19.38,0,0,1,19-19.74H96.51a19.38,19.38,0,0,1,19,19.74h38.37A59,59,0,0,0,96.11,45.27V0H57.76V44.82A59,59,0,0,0,0,104.88H0A59,59,0,0,0,57.76,165H96.13a19.38,19.38,0,0,1,19,19.74h0a19.74,19.74,0,0,1-19,20.17H57.76a19.38,19.38,0,0,1-19-19.74H.79a59,59,0,0,0,57.76,60.06V290H96.92V244.82a59,59,0,0,0,57.75-60.06h0A59.16,59.16,0,0,0,96.92,125.08Z"/></g></g></g><path id="Combined_Shape" data-name="Combined Shape" class="cls-2" d="M244.85,110.44l46.33,46.3a10.91,10.91,0,0,1,0,15.41h0l-46.33,46.37a10.93,10.93,0,0,1-15.46-15.46h0l27.7-27.64H182.55a10.91,10.91,0,1,1,0-21.82h74.58l-27.74-27.73a10.92,10.92,0,0,1,15.44-15.44Z"/></g></g></svg>