<svg xmlns="http://www.w3.org/2000/svg" viewBox="0 0 562 562"><defs><style>.cls-1{fill:#356b59;}.cls-2{fill:#fff;}</style></defs><g id="Layer_2" data-name="Layer 2"><g id="Layer_1-2" data-name="Layer 1"><circle class="cls-1" cx="281" cy="281" r="281"/><g id="Group_3" data-name="Group 3"><g id="Graph_02" data-name="Graph 02"><g id="Time_money" data-name="Time money"><path id="Path_30" data-name="Path 30" class="cls-2" d="M307.61,254H255.55a26.76,26.76,0,0,1-26.31-26.81h0A26.31,26.31,0,0,1,255,200.37h52.06a26.31,26.31,0,0,1,25.77,26.8h52.08a80.08,80.08,0,0,0-78.37-81.51V84.24H254.47v60.85a80.09,80.09,0,0,0-78.37,81.64h0a80.09,80.09,0,0,0,78.37,81.52h52.06a26.31,26.31,0,0,1,25.77,26.58h0a26.8,26.8,0,0,1-25.77,27.37H254.47a26.31,26.31,0,0,1-25.77-26.81H177.1a80.1,80.1,0,0,0,78.38,81.52v60.85h52V416.34a80.08,80.08,0,0,0,78.37-81.51h0A80.3,80.3,0,0,0,307.61,254Z"/></g></g></g></g></g></svg>