<svg xmlns="http://www.w3.org/2000/svg" viewBox="0 0 143.78 147.89"><defs><style>.cls-1{fill:none;stroke:#000;stroke-linecap:round;stroke-linejoin:round;stroke-width:9.24px;}</style></defs><g id="Layer_2" data-name="Layer 2"><g id="Layer_1-2" data-name="Layer 1"><g id="settings"><path id="Path_59" data-name="Path 59" d="M75.05,9.25A2.5,2.5,0,0,1,77.46,11L80,19.32A2.59,2.59,0,0,0,81.52,21l13.64,4.39a2.3,2.3,0,0,0,.74,0,2.67,2.67,0,0,0,1.52-.51l6.8-5.09a2.51,2.51,0,0,1,3,0l5.18,3.79a2.44,2.44,0,0,1,.92,2.82l-2.86,8.18a2.47,2.47,0,0,0,.32,2.26l8.41,11.56a2.51,2.51,0,0,0,2,1h8.64a2.52,2.52,0,0,1,2.36,1.71l2,6.1a2.5,2.5,0,0,1-.92,2.78l-6.93,4.8a2.47,2.47,0,0,0-1.07,2V81.11a2.48,2.48,0,0,0,1.07,2l7.11,4.71a2.49,2.49,0,0,1,.93,2.77l-2,6.47A2.48,2.48,0,0,1,130,98.81h-8.64a2.47,2.47,0,0,0-2,1l-8.55,11.09a2.51,2.51,0,0,0-.33,2.27l3,8.22a2.45,2.45,0,0,1-.93,2.82L107.36,128a2.87,2.87,0,0,1-1.48.46,2.41,2.41,0,0,1-1.48-.51l-6.89-5.22a2.67,2.67,0,0,0-1.52-.51h-.74l-13.63,4.62a2.56,2.56,0,0,0-1.57,1.67l-2.5,8.32a2.53,2.53,0,0,1-2.4,1.75H68.68a2.54,2.54,0,0,1-2.41-1.75l-2.49-8.32a2.59,2.59,0,0,0-1.57-1.67l-13.64-4.62h-.74a2.67,2.67,0,0,0-1.52.51L39.51,128a2.39,2.39,0,0,1-1.47.51,2.87,2.87,0,0,1-1.48-.46l-5.18-3.79a2.44,2.44,0,0,1-.92-2.82l2.86-8.18a2.47,2.47,0,0,0-.28-2.31L24.63,99.37a2.47,2.47,0,0,0-2-1H14a2.49,2.49,0,0,1-2.36-1.71l-2-6.1a2.49,2.49,0,0,1,.93-2.77l6.93-4.62a2.45,2.45,0,0,0,1.06-2V66.83a2.43,2.43,0,0,0-1.06-2l-7.12-4.95a2.5,2.5,0,0,1-.92-2.77l2-6.24a2.48,2.48,0,0,1,2.35-1.71h8.64a2.49,2.49,0,0,0,2-1L33,37a2.52,2.52,0,0,0,.33-2.27l-3-8.41a2.45,2.45,0,0,1,.93-2.82l5.17-3.79a2.59,2.59,0,0,1,1.48-.46,2.48,2.48,0,0,1,1.48.51L46.22,25a2.67,2.67,0,0,0,1.52.51,2.3,2.3,0,0,0,.74,0l13.63-4.39a2.54,2.54,0,0,0,1.57-1.67l2.5-8.31a2.49,2.49,0,0,1,2.4-1.76H75M75,.1H68.68A11.63,11.63,0,0,0,57.45,8.42L56,13.31l-6.89,2.27L45,12.48a11.57,11.57,0,0,0-7.07-2.4,11.71,11.71,0,0,0-6.88,2.22l-5.18,3.79a11.64,11.64,0,0,0-4.2,13.31l1.71,4.85-4.26,5.82H13.77A11.75,11.75,0,0,0,2.54,47.93L.55,54A11.69,11.69,0,0,0,5.18,67.29l4.2,2.91v7.21l-4.2,2.92A11.69,11.69,0,0,0,.55,93.59l2,6.1a11.75,11.75,0,0,0,11.14,8.09H19l4.25,5.87-1.71,4.62a11.66,11.66,0,0,0,4.21,13.31L31,135.32a11.6,11.6,0,0,0,13.87,0l4.07-3.09,6.88,2.26,1.48,4.9a11.69,11.69,0,0,0,11.42,8.5h6.37a11.67,11.67,0,0,0,11.23-8.32l1.48-4.89,6.89-2.27,4.07,3.1a11.61,11.61,0,0,0,13.86,0l5.55-3.79a11.64,11.64,0,0,0,4.2-13.31l-1.71-4.62,4.25-5.87H130a11.74,11.74,0,0,0,11.23-8.18l2-6.1a11.7,11.7,0,0,0-4.62-13.27l-4.21-2.91V70.25l4.21-2.91a11.69,11.69,0,0,0,4.62-13.26l-2-6.1a11.72,11.72,0,0,0-11.13-8.09H125l-4.26-5.83,1.71-4.85A11.64,11.64,0,0,0,118.13,16L113,12.2A11.81,11.81,0,0,0,106.06,10,11.55,11.55,0,0,0,99,12.39l-4.06,3.1L88,13.22l-1.48-4.9A11.66,11.66,0,0,0,75.1,0Z"/><circle id="Ellipse_18" data-name="Ellipse 18" class="cls-1" cx="71.87" cy="73.86" r="18.49"/></g></g></g></svg>