<svg xmlns="http://www.w3.org/2000/svg" viewBox="0 0 584.48 584.58"><defs><style>.cls-1{fill:#0060d0;stroke:#0060d0;stroke-width:18.89px;}</style></defs><g id="Layer_2" data-name="Layer 2"><g id="Layer_1-2" data-name="Layer 1"><g id="Group_119" data-name="Group 119"><g id="Group_120" data-name="Group 120"><path id="Path_39" data-name="Path 39" class="cls-1" d="M281.59,574.83C125.52,569,3.77,437.66,9.65,281.6S146.81,3.77,302.88,9.65s277.83,137.17,272,293.23c-.07,1.76-.15,3.51-.25,5.25C567.15,462.6,436.08,581.91,281.59,574.83Zm2-541.82c-135,4.54-243,113.77-246,248.86h12c5,0,10-.23,15.11,0a10.16,10.16,0,0,1,10.71,9.58c0,.17,0,.34,0,.51.3,6.35-3.78,10.62-11,11.34-3.78.38-7.29,0-10.92,0l-17.22.3c4.28,134.88,112.71,243.16,247.58,247.28,0-9-.45-18.06,0-27.09A10.24,10.24,0,0,1,300.11,515a16.43,16.43,0,0,1,4.65,10.61c.67,8.54.22,17.2.22,25.65,134.89-4.5,243.1-113,247.25-247.88H536.29a101.78,101.78,0,0,1-13.64-.31,10.16,10.16,0,0,1-9.29-11c0-.12,0-.25,0-.37a9.71,9.71,0,0,1,9.67-9.68c3.17-.3,6.38-.23,9.56-.23h18.88C548.44,147,440.75,37.92,306,33.15c-.19,4-.49,8-.57,12.05,0,5.52.31,11.07-.22,16.51A10.16,10.16,0,0,1,295,71.88a4.87,4.87,0,0,1-.54,0A10.38,10.38,0,0,1,284.1,61.49v-.12a85.94,85.94,0,0,1,0-9.63c-.51-6-.47-12.31-.47-18.55Z"/><path id="Path_40" data-name="Path 40" class="cls-1" d="M293.41,281.13c23-23.54,45-46.2,67.21-68.68s45.33-45.33,68-68a60.31,60.31,0,0,1,7.55-6.73,10.28,10.28,0,0,1,14.32,1.1,11.12,11.12,0,0,1,1.1,14.51,33.78,33.78,0,0,1-5.78,6.34L305.66,299.93c-2,2-4.08,4-6.31,5.9a10.32,10.32,0,0,1-14.35,0,99.27,99.27,0,0,1-7.37-6.84l-88.32-88.51a71.22,71.22,0,0,1-5.93-6.23,10.77,10.77,0,0,1,.15-15.23l.19-.18a11.07,11.07,0,0,1,15.53-.24,86.69,86.69,0,0,1,7.22,7l79.32,79.06C287.56,276.37,289.45,277.77,293.41,281.13Z"/></g></g></g></g></svg>