<svg xmlns="http://www.w3.org/2000/svg" viewBox="0 0 162.73 162.74"><defs><style>.cls-1{fill:#fff;}</style></defs><g id="Layer_2" data-name="Layer 2"><g id="Layer_1-2" data-name="Layer 1"><g id="Plus_Icon" data-name="Plus Icon"><path id="Combined_Shape" data-name="Combined Shape" class="cls-1" d="M6.69,134.71,60,81.35,2.8,24.11a9.55,9.55,0,0,1,0-13.51l7.8-7.8a9.55,9.55,0,0,1,13.51,0L81.35,60,134.71,6.69A15.08,15.08,0,0,1,156,28L102.68,81.37l57.25,57.25a9.54,9.54,0,0,1,0,13.5l-7.82,7.82a9.55,9.55,0,0,1-13.51,0L81.35,102.69,28,156.05A15.08,15.08,0,0,1,6.67,134.72h0Z"/></g></g></g></svg>