<svg width="144" height="34" viewBox="0 0 144 34" fill="none" xmlns="http://www.w3.org/2000/svg">
<mask id="mask0_221_59" style="mask-type:luminance" maskUnits="userSpaceOnUse" x="30" y="0" width="114" height="32">
<path d="M143.088 0.789795H30.5208V31.4685H143.088V0.789795Z" fill="white"/>
</mask>
<g mask="url(#mask0_221_59)">
<path d="M35.8955 24.5911V12.3223H31.0571V9.47106H44.2331V12.3223H39.3947V24.5911H35.8955ZM49.4493 24.5911L44.5029 9.47106H48.1317L52.4301 22.8631H50.6157L55.1085 9.47106H58.3485L62.6685 22.8631H60.9189L65.3253 9.47106H68.6733L63.7269 24.5911H59.9685L56.1453 12.8407H57.1389L53.2077 24.5911H49.4493ZM73.8452 15.5623H81.1244V18.2839H73.8452V15.5623ZM74.1044 21.7831H82.334V24.5911H70.6268V9.47106H82.0532V12.2791H74.1044V21.7831ZM85.1182 24.5911V9.47106H88.0126L96.9334 20.3575H95.5294V9.47106H98.9854V24.5911H96.1126L87.1702 13.7047H88.5742V24.5911H85.1182ZM105.695 24.5911V12.3223H100.856V9.47106H114.032V12.3223H109.194V24.5911H105.695ZM119.378 24.5911V18.4135L120.177 20.5303L113.525 9.47106H117.24L122.337 17.9599H120.199L125.318 9.47106H128.753L122.1 20.5303L122.877 18.4135V24.5911H119.378Z" fill="#F5F5F5"/>
<path d="M129.093 21.4159V19.0615L136.221 9.47106H139.893L132.917 19.0615L131.21 18.5647H143.112V21.4159H129.093ZM137.237 24.5911V21.4159L137.345 18.5647V15.7351H140.649V24.5911H137.237Z" fill="#FF00CC"/>
</g>
<path d="M2.63647 4.28809H17.2784" stroke="#F5F5F5" stroke-width="1.71584" stroke-miterlimit="3" stroke-linecap="square"/>
<path d="M8.92119 21.99L4.6709 25.6648H13.1643L8.92119 21.99Z" fill="#FF33CC"/>
<path d="M8.92119 21.99L13.1643 25.6648H4.6709L8.92119 21.99Z" stroke="#FF33CC" stroke-width="1.1439" stroke-linejoin="bevel"/>
<path d="M12.5745 17.8969C12.0002 17.4108 11.5843 16.9616 11.327 16.5493C10.7002 15.2338 10.9921 14.1173 12.2028 13.1998C13.4134 12.2823 14.3154 11.1825 14.9088 9.9004C15.7841 8.17315 16.2225 6.3024 16.2243 4.28816C16.224 4.03193 16.2168 3.77337 16.2028 3.51245M5.83984 33.0071L13.9418 19.5824C13.5287 18.9271 13.0729 18.3653 12.5745 17.8969M15.3413 22.6119C14.9466 21.4441 14.4802 20.4342 13.9418 19.5824L17.7042 13.35" stroke="#F5F5F5" stroke-width="1.71584" stroke-miterlimit="3"/>
<path d="M1.09253 13.8468C3.89984 12.6767 5.73842 12.8054 6.60826 14.2328C7.23527 15.5483 6.95287 16.6844 5.76106 17.6413C4.56874 18.5983 3.6572 19.6785 3.02643 20.8817C2.03982 22.8288 1.73359 25.2893 2.10774 28.2635" stroke="#F5F5F5" stroke-width="1.71584" stroke-miterlimit="3"/>
<path d="M0.899414 28.4923H15.5413" stroke="#F5F5F5" stroke-width="1.71584" stroke-miterlimit="3" stroke-linecap="square"/>
</svg>
